<svg height="512" viewBox="0 0 512 512" width="512" xmlns="http://www.w3.org/2000/svg"><g><g fill="#57a4ff"><path d="m304 16-8 32h-80l-8-32z"/><path d="m304 16-8 32h-80l-8-32z"/></g><g fill="#004fac"><path d="m200 464h-40a8 8 0 0 0 0 16h40a8 8 0 0 0 0-16z"/><path d="m232 464h-8a8 8 0 0 0 0 16h8a8 8 0 0 0 0-16z"/><path d="m172 368h19a8 8 0 0 0 0-16h-19a12.013 12.013 0 0 1 -12-12v-20a8 8 0 0 0 -16 0v20a28.032 28.032 0 0 0 28 28z"/><path d="m279 352h-47a8 8 0 0 0 0 16h47a8 8 0 0 0 0-16z"/><path d="m360 312a8 8 0 0 0 -8 8v20a12.013 12.013 0 0 1 -12 12h-20a8 8 0 0 0 0 16h20a28.032 28.032 0 0 0 28-28v-20a8 8 0 0 0 -8-8z"/><path d="m340 144h-20a8 8 0 0 0 0 16h20a12.013 12.013 0 0 1 12 12v20a8 8 0 0 0 16 0v-20a28.032 28.032 0 0 0 -28-28z"/><path d="m360 224a8 8 0 0 0 -8 8v48a8 8 0 0 0 16 0v-48a8 8 0 0 0 -8-8z"/><path d="m320 335a8 8 0 0 0 8-8v-143a8 8 0 0 0 -16 0v143a8 8 0 0 0 8 8z"/><path d="m264 256v-72a8 8 0 0 0 -16 0v72a8 8 0 0 0 16 0z"/><path d="m364 8h-216a28.031 28.031 0 0 0 -28 28v440a28.031 28.031 0 0 0 28 28h216a28.031 28.031 0 0 0 28-28v-440a28.031 28.031 0 0 0 -28-28zm-70.25 16-4 16h-67.5l-4-16zm82.25 452a12.01 12.01 0 0 1 -12 12h-216a12.01 12.01 0 0 1 -12-12v-440a12.01 12.01 0 0 1 12-12h53.75l6.49 25.94a8 8 0 0 0 7.76 6.06h80a8 8 0 0 0 7.76-6.06l6.49-25.94h53.75a12.01 12.01 0 0 1 12 12z"/><path d="m152 200a8 8 0 0 0 8-8v-20a12.013 12.013 0 0 1 12-12h19a8 8 0 0 0 0-16h-19a28.032 28.032 0 0 0 -28 28v20a8 8 0 0 0 8 8z"/><path d="m232 160h47a8 8 0 0 0 0-16h-47a8 8 0 0 0 0 16z"/><path d="m152 288a8 8 0 0 0 8-8v-48a8 8 0 0 0 -16 0v48a8 8 0 0 0 8 8z"/><path d="m192 176a8 8 0 0 0 -8 8v143a8 8 0 0 0 16 0v-143a8 8 0 0 0 -8-8z"/><path d="m224 264a8 8 0 0 0 8-8v-72a8 8 0 0 0 -16 0v72a8 8 0 0 0 8 8z"/><path d="m288 176a8 8 0 0 0 -8 8v72a8 8 0 0 0 16 0v-72a8 8 0 0 0 -8-8z"/><path d="m240 328a8 8 0 0 0 8 8h16a8 8 0 0 0 0-16h-16a8 8 0 0 0 -8 8z"/></g></g></svg>