<svg height="512" viewBox="0 0 512 512" width="512" xmlns="http://www.w3.org/2000/svg"><g><path d="m384 224v-20a19.994 19.994 0 0 0 -20-20h-328a19.994 19.994 0 0 0 -20 20v20z" fill="#57a4ff"/><path d="m36 424h328a19.994 19.994 0 0 0 20-20v-132h-368v132a19.994 19.994 0 0 0 20 20zm12-80h96v48h-96z" fill="#57a4ff"/><g fill="#004fac"><path d="m476 80h-328a28.031 28.031 0 0 0 -28 28v68h-84a28.031 28.031 0 0 0 -28 28v200a28.031 28.031 0 0 0 28 28h328a28.031 28.031 0 0 0 28-28v-68h84a28.031 28.031 0 0 0 28-28v-200a28.031 28.031 0 0 0 -28-28zm-100 324a12.01 12.01 0 0 1 -12 12h-328a12.01 12.01 0 0 1 -12-12v-124h352zm0-140h-352v-32h352zm0-48h-352v-12a12.01 12.01 0 0 1 12-12h328a12.01 12.01 0 0 1 12 12zm112 92a12.01 12.01 0 0 1 -12 12h-84v-116a28.031 28.031 0 0 0 -28-28h-228v-68a12.01 12.01 0 0 1 12-12h328a12.01 12.01 0 0 1 12 12z"/><path d="m144 336h-96a8 8 0 0 0 -8 8v48a8 8 0 0 0 8 8h96a8 8 0 0 0 8-8v-48a8 8 0 0 0 -8-8zm-8 48h-80v-32h80z"/><path d="m352 336h-88a8 8 0 0 0 0 16h88a8 8 0 0 0 0-16z"/><path d="m352 360h-88a8 8 0 0 0 0 16h88a8 8 0 0 0 0-16z"/><path d="m352 384h-48a8 8 0 0 0 0 16h48a8 8 0 0 0 0-16z"/></g></g></svg>