<svg height="512" viewBox="0 0 512 512" width="512" xmlns="http://www.w3.org/2000/svg"><g><g fill="#57a4ff"><path d="m36 184h8a19.994 19.994 0 0 0 20-20v-44h48v44a19.994 19.994 0 0 0 20 20h8a19.994 19.994 0 0 0 20-20v-44h48v44a19.994 19.994 0 0 0 20 20h8a19.994 19.994 0 0 0 20-20v-44h48v44a19.994 19.994 0 0 0 20 20h8a19.994 19.994 0 0 0 20-20v-44h48v44a19.994 19.994 0 0 0 20 20h8a19.994 19.994 0 0 0 20-20v-44h48l-16-56h-448l-16 56v44a19.994 19.994 0 0 0 20 20z"/><path d="m200 224h112v160h-112z"/><path d="m16 416h480v32h-480z"/><path d="m344 224h96v96h-96z"/><path d="m72 224h96v96h-96z"/></g><g fill="#004fac"><path d="m504 164v-44a8.009 8.009 0 0 0 -.31-2.2l-16-56a8 8 0 0 0 -7.69-5.8h-448a8 8 0 0 0 -7.69 5.8l-16 56a8.009 8.009 0 0 0 -.31 2.2v44a28.043 28.043 0 0 0 24 27.71v216.29h-16a8 8 0 0 0 -8 8v32a8 8 0 0 0 8 8h480a8 8 0 0 0 8-8v-32a8 8 0 0 0 -8-8h-16v-216.29a28.043 28.043 0 0 0 24-27.71zm-465.97-92h435.94l11.42 40h-458.78zm305.97 304h-24v-152a8 8 0 0 0 -8-8h-112a8 8 0 0 0 -8 8v152h-24a8 8 0 0 0 -8 8v24h-112v-216.29a27.986 27.986 0 0 0 16-8.14 27.9 27.9 0 0 0 20 8.43h8a27.9 27.9 0 0 0 20-8.43 27.9 27.9 0 0 0 20 8.43h8a27.9 27.9 0 0 0 20-8.43 27.9 27.9 0 0 0 20 8.43h8a27.9 27.9 0 0 0 20-8.43 27.9 27.9 0 0 0 20 8.43h8a27.9 27.9 0 0 0 20-8.43 27.9 27.9 0 0 0 20 8.43h8a27.9 27.9 0 0 0 20-8.43 27.9 27.9 0 0 0 20 8.43h8a27.9 27.9 0 0 0 20-8.43 27.9 27.9 0 0 0 20 8.43h8a27.9 27.9 0 0 0 20-8.43 27.9 27.9 0 0 0 20 8.43h8a27.9 27.9 0 0 0 20-8.43 27.986 27.986 0 0 0 16 8.14v216.29h-112v-24a8 8 0 0 0 -8-8zm-8 16v16h-160v-16zm-128-16v-144h96v144zm-136-212v-36h32v36a12.01 12.01 0 0 1 -12 12h-8a12.01 12.01 0 0 1 -12-12zm48 0v-36h32v36a12.01 12.01 0 0 1 -12 12h-8a12.01 12.01 0 0 1 -12-12zm48 0v-36h32v36a12.01 12.01 0 0 1 -12 12h-8a12.01 12.01 0 0 1 -12-12zm48 0v-36h32v36a12.01 12.01 0 0 1 -12 12h-8a12.01 12.01 0 0 1 -12-12zm48 0v-36h32v36a12.01 12.01 0 0 1 -12 12h-8a12.01 12.01 0 0 1 -12-12zm48 0v-36h32v36a12.01 12.01 0 0 1 -12 12h-8a12.01 12.01 0 0 1 -12-12zm48 0v-36h32v36a12.01 12.01 0 0 1 -12 12h-8a12.01 12.01 0 0 1 -12-12zm48 0v-36h32v36a12.01 12.01 0 0 1 -12 12h-8a12.01 12.01 0 0 1 -12-12zm-384 0v-36h32v36a12.01 12.01 0 0 1 -12 12h-8a12.01 12.01 0 0 1 -12-12zm464 260v16h-464v-16zm-12-248h-8a12.01 12.01 0 0 1 -12-12v-36h32v36a12.01 12.01 0 0 1 -12 12z"/><path d="m440 216h-96a8 8 0 0 0 -8 8v96a8 8 0 0 0 8 8h96a8 8 0 0 0 8-8v-96a8 8 0 0 0 -8-8zm-8 96h-80v-80h80z"/><path d="m168 216h-96a8 8 0 0 0 -8 8v96a8 8 0 0 0 8 8h96a8 8 0 0 0 8-8v-96a8 8 0 0 0 -8-8zm-8 96h-80v-80h80z"/><path d="m288 328a8 8 0 0 0 8-8v-32a8 8 0 0 0 -16 0v32a8 8 0 0 0 8 8z"/></g></g></svg>