<svg height="512" viewBox="0 0 512 512" width="512" xmlns="http://www.w3.org/2000/svg"><g><path d="m476 56h-440a19.994 19.994 0 0 0 -20 20v28h480v-28a19.994 19.994 0 0 0 -20-20z" fill="#57a4ff"/><path d="m242.67 272h-194.67v132a19.994 19.994 0 0 0 20 20h328a19.994 19.994 0 0 0 20-20v-28h28a19.994 19.994 0 0 0 20-20v-200a19.994 19.994 0 0 0 -20-20h-328a19.994 19.994 0 0 0 -20 20v28h-28a19.994 19.994 0 0 0 -20 20v20h368v48zm-66.67 120h-96v-48h96z" fill="#57a4ff"/><g fill="#004fac"><path d="m176 336h-96a8 8 0 0 0 -8 8v48a8 8 0 0 0 8 8h96a8 8 0 0 0 8-8v-48a8 8 0 0 0 -8-8zm-8 48h-80v-32h80z"/><path d="m384 336h-88a8 8 0 0 0 0 16h88a8 8 0 0 0 0-16z"/><path d="m384 360h-88a8 8 0 0 0 0 16h88a8 8 0 0 0 0-16z"/><path d="m384 384h-48a8 8 0 0 0 0 16h48a8 8 0 0 0 0-16z"/><path d="m476 48h-440a28.031 28.031 0 0 0 -28 28v360a28.031 28.031 0 0 0 28 28h440a28.031 28.031 0 0 0 28-28v-360a28.031 28.031 0 0 0 -28-28zm12 388a12.01 12.01 0 0 1 -12 12h-440a12.01 12.01 0 0 1 -12-12v-324h464zm0-340h-464v-20a12.01 12.01 0 0 1 12-12h440a12.01 12.01 0 0 1 12 12z"/><path d="m444 128h-328a28.031 28.031 0 0 0 -28 28v20h-20a28.031 28.031 0 0 0 -28 28v200a28.031 28.031 0 0 0 28 28h328a28.031 28.031 0 0 0 28-28v-20h20a28.031 28.031 0 0 0 28-28v-200a28.031 28.031 0 0 0 -28-28zm-36 276a12.01 12.01 0 0 1 -12 12h-328a12.01 12.01 0 0 1 -12-12v-124h352zm0-140h-352v-32h352zm0-48h-352v-12a12.01 12.01 0 0 1 12-12h328a12.01 12.01 0 0 1 12 12zm48 140a12.01 12.01 0 0 1 -12 12h-20v-164a28.031 28.031 0 0 0 -28-28h-292v-20a12.01 12.01 0 0 1 12-12h328a12.01 12.01 0 0 1 12 12z"/><path d="m40 88h8a8 8 0 0 0 0-16h-8a8 8 0 0 0 0 16z"/><path d="m72 88h8a8 8 0 0 0 0-16h-8a8 8 0 0 0 0 16z"/><path d="m104 88h8a8 8 0 0 0 0-16h-8a8 8 0 0 0 0 16z"/></g></g></svg>