<svg height="512" width="512" xmlns="http://www.w3.org/2000/svg"><g fill="#57a4ff"><path d="M496 328v16a16 16 0 01-16 16h-48v-48h48a16 16 0 0116 16z"/><circle cx="256" cy="128" r="8"/><path d="M408 120v80H56a40 40 0 010-80h138.01a64.029 64.029 0 00123.98 0zM432 200h-24v-2.31z"/><circle cx="256" cy="128" r="8"/><circle cx="256" cy="128" r="8"/></g><g fill="#004fac"><path d="M480 304h-8V200a8 8 0 00-8-8h-48v-72a8 8 0 00-8-8h-80.46a70.439 70.439 0 00.46-8 72 72 0 00-144 0 70.439 70.439 0 00.46 8H56a48.051 48.051 0 00-48 48v272a48.051 48.051 0 0048 48h408a8 8 0 008-8V368h8a24.032 24.032 0 0024-24v-16a24.032 24.032 0 00-24-24zM256 48a56 56 0 11-56 56 56.062 56.062 0 0156-56zM56 128h132.13a71.983 71.983 0 00135.74 0H400v64H56a32 32 0 010-64zm400 336H56a32.036 32.036 0 01-32-32V195.74A47.8 47.8 0 0056 208h400v96h-24a8 8 0 00-8 8v48a8 8 0 008 8h24zm32-120a8.011 8.011 0 01-8 8h-40v-32h40a8.011 8.011 0 018 8z"/><path d="M336 432a8 8 0 000 16h96a8 8 0 000-16zM312 432h-8a8 8 0 000 16h8a8 8 0 000-16z"/><circle cx="256" cy="128" r="8"/><path d="M277.335 104.15a32 32 0 00-42.67 0 8 8 0 1010.67 11.922 16 16 0 0121.33 0 8 8 0 1010.67-11.922z"/><path d="M229.335 98.183a40 40 0 0153.33 0 8 8 0 1010.67-11.922 56 56 0 00-74.67 0 8 8 0 1010.67 11.922z"/></g></svg>